<svg xmlns="http://www.w3.org/2000/svg" xmlns:xlink="http://www.w3.org/1999/xlink" zoomAndPan="magnify" preserveAspectRatio="xMidYMid meet" version="1.0" viewBox="0 162.21 322.1 65.45"><defs><g/><clipPath id="003194c4af"><path d="M 0 162.210938 L 190.960938 162.210938 L 190.960938 227.660156 L 0 227.660156 Z M 0 162.210938 " clip-rule="nonzero"/></clipPath></defs><g clip-path="url(#003194c4af)"><path fill="#7b4ba7" d="M 0 162.210938 L 190.6875 162.210938 L 190.6875 227.644531 L 0 227.644531 Z M 0 162.210938 " fill-opacity="1" fill-rule="nonzero"/></g><g fill="#ffffff" fill-opacity="1"><g transform="translate(9.1011, 209.849754)"><g><path d="M 25.78125 -14.933594 L 29.535156 -14.933594 C 29.535156 -20.449219 24.53125 -22.398438 16.625 -22.398438 C 7.246094 -22.398438 2.980469 -20.230469 2.980469 -16.183594 L 2.980469 -15.890625 C 2.980469 -10.921875 6.988281 -10.261719 15.816406 -9.34375 C 25.414062 -8.460938 25.453125 -7.136719 25.453125 -6.546875 L 25.453125 -6.105469 C 25.453125 -3.53125 19.933594 -3.308594 15.851562 -3.308594 C 9.597656 -3.308594 6.695312 -4.964844 6.695312 -7.613281 L 2.941406 -7.613281 C 2.941406 -2.683594 7.207031 0.367188 15.851562 0.367188 C 25.085938 0.367188 29.3125 -1.359375 29.3125 -6.214844 L 29.3125 -6.582031 C 29.3125 -11.585938 24.386719 -12.285156 16.035156 -13.058594 C 6.878906 -13.902344 6.839844 -15.042969 6.839844 -15.925781 L 6.839844 -16.257812 C 6.839844 -18.023438 11.402344 -18.722656 16.625 -18.722656 C 21.847656 -18.722656 25.78125 -17.765625 25.78125 -14.933594 Z M 25.78125 -14.933594 "/></g></g></g><g fill="#ffffff" fill-opacity="1"><g transform="translate(41.569447, 209.849754)"><g><path d="M 4.5625 0 L 8.3125 0 L 8.3125 -22.066406 L 4.5625 -22.066406 Z M 4.5625 0 "/></g></g></g><g fill="#ffffff" fill-opacity="1"><g transform="translate(54.439128, 209.849754)"><g><path d="M 37.738281 -22.066406 L 32.402344 -22.066406 L 21.074219 -3.679688 L 9.894531 -22.066406 L 4.5625 -22.066406 L 4.5625 0 L 8.3125 0 L 8.3125 -17.398438 L 18.867188 -0.0742188 L 18.792969 0 L 23.320312 0 L 23.28125 -0.0742188 L 33.984375 -17.46875 L 33.984375 0 L 37.738281 0 Z M 37.738281 -22.066406 "/></g></g></g><g fill="#ffffff" fill-opacity="1"><g transform="translate(96.72521, 209.849754)"><g><path d="M 20.230469 -22.066406 L 4.5625 -22.066406 L 4.5625 0 L 8.3125 0 L 8.3125 -7.171875 L 20.230469 -7.171875 C 26.003906 -7.171875 28.761719 -9.230469 28.761719 -14.453125 L 28.761719 -15.519531 C 28.761719 -19.164062 27.253906 -22.066406 20.230469 -22.066406 Z M 24.9375 -14.453125 C 24.9375 -11.84375 23.871094 -10.851562 19.675781 -10.851562 L 8.3125 -10.851562 L 8.3125 -18.390625 L 19.675781 -18.390625 C 23.6875 -18.390625 24.9375 -17.691406 24.9375 -15.519531 Z M 24.9375 -14.453125 "/></g></g></g><g fill="#ffffff" fill-opacity="1"><g transform="translate(127.68597, 209.849754)"><g><path d="M 8.277344 -22.066406 L 4.523438 -22.066406 L 4.523438 0 L 26.664062 0 L 26.664062 -3.53125 L 8.277344 -3.53125 Z M 8.277344 -22.066406 "/></g></g></g><g fill="#ffffff" fill-opacity="1"><g transform="translate(155.81541, 209.849754)"><g><path d="M 23.023438 -22.066406 L 14.050781 -11.734375 L 5.039062 -22.066406 L -0.0742188 -22.066406 L 11.511719 -8.828125 L 11.550781 -8.828125 L 12.136719 -8.128906 L 12.136719 0 L 15.890625 0 L 15.890625 -8.089844 L 28.136719 -22.066406 Z M 23.023438 -22.066406 "/></g></g></g><g fill="#7b4ba7" fill-opacity="1"><g transform="translate(198.907331, 208.357969)"><g><path d="M 40.402344 -23.578125 L 33.796875 -4.753906 L 25.035156 -23.578125 L 20.003906 -23.578125 L 11.238281 -4.753906 L 4.636719 -23.578125 L 0.511719 -23.578125 L 8.765625 0 L 13.480469 0 L 22.519531 -19.375 L 31.558594 0 L 36.273438 0 L 44.527344 -23.578125 Z M 40.402344 -23.578125 "/></g></g></g><g fill="#7b4ba7" fill-opacity="1"><g transform="translate(243.937025, 208.357969)"><g><path d="M 4.875 0 L 8.882812 0 L 8.882812 -23.578125 L 4.875 -23.578125 Z M 4.875 0 "/></g></g></g><g fill="#7b4ba7" fill-opacity="1"><g transform="translate(257.68955, 208.357969)"><g><path d="M 27.550781 -15.957031 L 31.558594 -15.957031 C 31.558594 -21.851562 26.214844 -23.933594 17.761719 -23.933594 C 7.742188 -23.933594 3.183594 -21.613281 3.183594 -17.292969 L 3.183594 -16.976562 C 3.183594 -11.671875 7.46875 -10.964844 16.898438 -9.980469 C 27.15625 -9.039062 27.195312 -7.625 27.195312 -6.996094 L 27.195312 -6.523438 C 27.195312 -3.773438 21.300781 -3.535156 16.9375 -3.535156 C 10.257812 -3.535156 7.152344 -5.304688 7.152344 -8.136719 L 3.144531 -8.136719 C 3.144531 -2.867188 7.703125 0.394531 16.9375 0.394531 C 26.800781 0.394531 31.320312 -1.453125 31.320312 -6.640625 L 31.320312 -7.035156 C 31.320312 -12.378906 26.054688 -13.125 17.136719 -13.953125 C 7.347656 -14.855469 7.308594 -16.074219 7.308594 -17.015625 L 7.308594 -17.371094 C 7.308594 -19.257812 12.183594 -20.003906 17.761719 -20.003906 C 23.34375 -20.003906 27.550781 -18.980469 27.550781 -15.957031 Z M 27.550781 -15.957031 "/></g></g></g><g fill="#7b4ba7" fill-opacity="1"><g transform="translate(292.385207, 208.357969)"><g><path d="M 29.710938 -20.003906 L 29.710938 -23.578125 L 4.875 -23.578125 L 4.875 0 L 29.710938 0 L 29.710938 -3.578125 L 8.882812 -3.578125 L 8.882812 -9.707031 L 27.273438 -9.707031 L 27.273438 -13.285156 L 8.882812 -13.285156 L 8.882812 -20.003906 Z M 29.710938 -20.003906 "/></g></g></g></svg>